{
    "asset" : {
        "generator" : "Khronos glTF Blender I/O v1.2.75",
        "version" : "2.0"
    },
    "scene" : 0,
    "scenes" : [
        {
            "name" : "Scene",
            "nodes" : [
                0
            ]
        }
    ],
    "nodes" : [
        {
            "mesh" : 0,
            "name" : "MidBot",
            "scale" : [
                0.530728816986084,
                0.3119588792324066,
                0.5034468770027161
            ],
            "translation" : [
                0,
                1.0192266702651978,
                -3.0430684089660645
            ]
        }
    ],
    "materials" : [
        {
            "doubleSided" : true,
            "emissiveFactor" : [
                0,
                0,
                0
            ],
            "name" : "GoldFlakeCakeMaterial",
            "pbrMetallicRoughness" : {
                "metallicFactor" : 0,
                "roughnessFactor" : 0.75
            }
        }
    ],
    "meshes" : [
        {
            "name" : "Cylinder.005",
            "primitives" : [
                {
                    "attributes" : {
                        "POSITION" : 0,
                        "NORMAL" : 1,
                        "TEXCOORD_0" : 2,
                        "JOINTS_0" : 3,
                        "WEIGHTS_0" : 4
                    },
                    "indices" : 5,
                    "material" : 0
                }
            ]
        }
    ],
    "accessors" : [
        {
            "bufferView" : 0,
            "componentType" : 5126,
            "count" : 1612,
            "max" : [
                1.0058974027633667,
                0.7348974347114563,
                1.0079503059387207
            ],
            "min" : [
                -0.9941025376319885,
                -1.267175555229187,
                -0.9920497536659241
            ],
            "type" : "VEC3"
        },
        {
            "bufferView" : 1,
            "componentType" : 5126,
            "count" : 1612,
            "type" : "VEC3"
        },
        {
            "bufferView" : 2,
            "componentType" : 5126,
            "count" : 1612,
            "type" : "VEC2"
        },
        {
            "bufferView" : 3,
            "componentType" : 5123,
            "count" : 1612,
            "type" : "VEC4"
        },
        {
            "bufferView" : 4,
            "componentType" : 5126,
            "count" : 1612,
            "type" : "VEC4"
        },
        {
            "bufferView" : 5,
            "componentType" : 5123,
            "count" : 9210,
            "type" : "SCALAR"
        }
    ],
    "bufferViews" : [
        {
            "buffer" : 0,
            "byteLength" : 19344,
            "byteOffset" : 0
        },
        {
            "buffer" : 0,
            "byteLength" : 19344,
            "byteOffset" : 19344
        },
        {
            "buffer" : 0,
            "byteLength" : 12896,
            "byteOffset" : 38688
        },
        {
            "buffer" : 0,
            "byteLength" : 12896,
            "byteOffset" : 51584
        },
        {
            "buffer" : 0,
            "byteLength" : 25792,
            "byteOffset" : 64480
        },
        {
            "buffer" : 0,
            "byteLength" : 18420,
            "byteOffset" : 90272
        }
    ],
    "buffers" : [
        {
            "byteLength" : 108692,
            "uri" : "data:application/octet-stream;base64,"
        }
    ]
}
